<?xml version="1.0" encoding="iso-8859-1"?>
<!-- Uploaded to: SVG Repo, www.svgrepo.com, Generator: SVG Repo Mixer Tools -->
<svg height="800px" width="800px" version="1.1" id="Layer_1" xmlns="http://www.w3.org/2000/svg" xmlns:xlink="http://www.w3.org/1999/xlink" 
	 viewBox="0 0 479.185 479.185" xml:space="preserve">
<g>
	<path style="fill:#385F7C;" d="M161.304,430.844c0,3.324-2.678,6.002-6.002,6.002H99.879c-3.332,0-6.002-2.678-6.002-6.002v-56.942
		c0-3.308,2.67-5.986,6.002-5.986h55.422c3.324,0,6.002,2.678,6.002,5.986V430.844z"/>
	<path style="fill:#385F7C;" d="M385.3,430.844c0,3.324-2.678,6.002-6.002,6.002h-55.422c-3.332,0-6.002-2.678-6.002-6.002v-56.942
		c0-3.308,2.67-5.986,6.002-5.986h55.422c3.324,0,6.002,2.678,6.002,5.986V430.844z"/>
</g>
<g>
	<path style="fill:#1A3D5B;" d="M136.704,471.308c0,4.356-3.521,7.877-7.877,7.877H55.966c-4.356,0-7.877-3.521-7.877-7.877v-74.831
		c0-4.356,3.521-7.877,7.877-7.877h72.862c4.356,0,7.877,3.521,7.877,7.877V471.308z"/>
	<path style="fill:#1A3D5B;" d="M431.096,471.308c0,4.356-3.521,7.877-7.877,7.877h-72.862c-4.356,0-7.877-3.521-7.877-7.877
		v-74.831c0-4.356,3.521-7.877,7.877-7.877h72.862c4.356,0,7.877,3.521,7.877,7.877V471.308z"/>
</g>
<path style="fill:#15CC93;" d="M428.15,356.801c0,11.217-9.098,20.322-20.315,20.322H71.365c-11.232,0-20.338-9.106-20.338-20.322
	V20.322C51.027,9.09,60.132,0,71.365,0h336.479c11.217,0,20.315,9.09,20.315,20.322v336.479H428.15z"/>
<path style="fill:#04A6AA;" d="M428.15,20.322v336.479c0,11.217-9.098,20.322-20.315,20.322H71.365"/>
<path style="fill:#00B7A5;" d="M51.027,20.322C51.027,9.09,60.132,0,71.365,0h336.479c11.217,0,20.315,9.09,20.315,20.322v336.479
	c0,11.217-9.098,20.322-20.315,20.322"/>
<g>
	<path style="fill:#26DDA0;" d="M126.96,324.064c0,3.261-2.647,5.923-5.923,5.923l0,0c-3.277,0-5.931-2.662-5.931-5.923V53.059
		c0-3.261,2.655-5.923,5.931-5.923l0,0c3.277,0,5.923,2.662,5.923,5.923V324.064z"/>
	<path style="fill:#26DDA0;" d="M186.25,324.064c0,3.261-2.662,5.923-5.923,5.923l0,0c-3.285,0-5.931-2.662-5.931-5.923V53.059
		c0-3.261,2.647-5.923,5.931-5.923l0,0c3.261,0,5.923,2.662,5.923,5.923V324.064z"/>
	<path style="fill:#26DDA0;" d="M245.532,324.064c0,3.261-2.655,5.923-5.939,5.923l0,0c-3.269,0-5.923-2.662-5.923-5.923V53.059
		c0-3.261,2.655-5.923,5.923-5.923l0,0c3.285,0,5.939,2.662,5.939,5.923V324.064z"/>
	<path style="fill:#26DDA0;" d="M304.79,324.064c0,3.261-2.631,5.923-5.908,5.923l0,0c-3.277,0-5.955-2.662-5.955-5.923V53.059
		c0-3.261,2.678-5.923,5.955-5.923l0,0c3.277,0,5.908,2.662,5.908,5.923V324.064z"/>
	<path style="fill:#26DDA0;" d="M364.071,324.064c0,3.261-2.647,5.923-5.923,5.923l0,0c-3.277,0-5.923-2.662-5.923-5.923V53.059
		c0-3.261,2.647-5.923,5.923-5.923l0,0c3.277,0,5.923,2.662,5.923,5.923V324.064z"/>
</g>
<path style="fill:#71989E;" d="M447.023,401.4c0,4.356-3.521,7.877-7.877,7.877H40.038c-4.34,0-7.877-3.521-7.877-7.877v-31.508
	c0-4.356,3.537-7.877,7.877-7.877h399.108c4.356,0,7.877,3.521,7.877,7.877V401.4z"/>
<path style="fill:#83B2B7;" d="M439.146,362.016H40.038c-4.34,0-7.877,3.521-7.877,7.877v9.846c0,4.356,3.537,7.877,7.877,7.877
	h399.108c4.356,0,7.877-3.521,7.877-7.877v-9.846C447.023,365.536,443.502,362.016,439.146,362.016z"/>
</svg>